<svg width="18" height="17" viewBox="0 0 18 17" fill="none" xmlns="http://www.w3.org/2000/svg">
<path d="M17.9459 15.7781L12.1027 10.2595C13.0094 9.15233 13.4999 7.79872 13.4999 6.37497C13.4999 4.67073 12.7957 3.07274 11.5222 1.86787C10.2487 0.662997 8.55221 0 6.74997 0C4.94773 0 3.25124 0.665122 1.97774 1.86787C0.701997 3.07061 0 4.67073 0 6.37497C0 8.07709 0.704247 9.67933 1.97774 10.8821C3.25124 12.0869 4.94548 12.7499 6.74997 12.7499C8.25746 12.7499 9.68846 12.2867 10.8607 11.4325L16.7039 16.9489C16.7211 16.9651 16.7414 16.978 16.7638 16.9867C16.7862 16.9955 16.8102 17 16.8344 17C16.8587 17 16.8827 16.9955 16.9051 16.9867C16.9274 16.978 16.9478 16.9651 16.9649 16.9489L17.9459 16.0246C17.9631 16.0084 17.9767 15.9892 17.9859 15.968C17.9952 15.9469 18 15.9242 18 15.9013C18 15.8784 17.9952 15.8557 17.9859 15.8346C17.9767 15.8135 17.9631 15.7942 17.9459 15.7781V15.7781ZM10.314 9.74096C9.35996 10.6398 8.09546 11.135 6.74997 11.135C5.40448 11.135 4.13998 10.6398 3.18599 9.74096C2.23424 8.83996 1.70999 7.64572 1.70999 6.37497C1.70999 5.10423 2.23424 3.90786 3.18599 3.00899C4.13998 2.11012 5.40448 1.61499 6.74997 1.61499C8.09546 1.61499 9.36221 2.10799 10.314 3.00899C11.2657 3.90998 11.7899 5.10423 11.7899 6.37497C11.7899 7.64572 11.2657 8.84209 10.314 9.74096Z" fill="#8C8C8C"/>
</svg>
